<svg xmlns="http://www.w3.org/2000/svg" viewBox="0 0 120 120" width="120" height="120">
  <!-- Outer gear shape -->
  <path d="M60 8 L68 8 L70 18 Q76 20 81 23 L90 17 L96 23 L90 32 Q93 37 95 43 L105 45 L105 53 L95 55 Q93 61 90 66 L96 75 L90 81 L81 75 Q76 78 70 80 L68 90 L60 90 L58 80 Q52 78 47 75 L38 81 L32 75 L38 66 Q35 61 33 55 L23 53 L23 45 L33 43 Q35 37 38 32 L32 23 L38 17 L47 23 Q52 20 58 18 Z" 
    fill="#EB1700" stroke="none"/>
  <!-- Inner gear cutout -->
  <path d="M60 8 L68 8 L70 18 Q76 20 81 23 L90 17 L96 23 L90 32 Q93 37 95 43 L105 45 L105 53 L95 55 Q93 61 90 66 L96 75 L90 81 L81 75 Q76 78 70 80 L68 90 L60 90 L58 80 Q52 78 47 75 L38 81 L32 75 L38 66 Q35 61 33 55 L23 53 L23 45 L33 43 Q35 37 38 32 L32 23 L38 17 L47 23 Q52 20 58 18 Z" 
    fill="none" stroke="#1A1A1A" stroke-width="2"/>
  <!-- Center circle background -->
  <circle cx="64" cy="49" r="22" fill="#FFFFFF"/>
  <circle cx="64" cy="49" r="22" fill="none" stroke="#1A1A1A" stroke-width="2"/>
  <!-- GARAGE text -->
  <text x="64" y="46" text-anchor="middle" font-family="Arial,Helvetica,sans-serif" font-size="9" font-weight="700" fill="#1A1A1A" letter-spacing="0.5">GARAGE</text>
  <!-- Small wrench/tool icon hint -->
  <line x1="56" y1="52" x2="72" y2="52" stroke="#EB1700" stroke-width="1.5" stroke-linecap="round"/>
</svg>
